<svg xmlns="http://www.w3.org/2000/svg" width="80" height="80"><path fill="#3f4662" fill-rule="evenodd" d="M372 312h9.711a2 2 0 0 0 0-4H372a8 8 0 0 1 0-16h20.211a2 2 0 0 0 0-4H372a12 12 0 0 0 0 24zm0-28h56a12 12 0 0 0 0-24h-56a12 12 0 0 0 0 24zm0-20h56a8 8 0 0 1 0 16h-56a8 8 0 0 1 0-16zm20.378 72H372a8 8 0 0 1 0-16h8.878a2 2 0 0 0 0-4H372a12 12 0 0 0 0 24h20.378a2 2 0 0 0 0-4zM414 288a26 26 0 1 0 26 26 26.025 26.025 0 0 0-26-26zm0 48a22 22 0 1 1 22-22 22.026 22.026 0 0 1-22 22z" transform="translate(-360 -260)"/><path fill="#3f4662" fill-rule="evenodd" d="M372 284h56a12 12 0 0 0 0-24h-56a12 12 0 0 0 0 24zm0 28h56a12 12 0 0 0 0-24h-56a12 12 0 0 0 0 24zm0 28h56a12 12 0 0 0 0-24h-56a12 12 0 0 0 0 24z" opacity=".1" transform="translate(-360 -260)"/><path fill="#39d67c" fill-rule="evenodd" d="M369.918 300a1.989 1.989 0 0 0 1.979 2 2 2 0 1 0 0-4 1.988 1.988 0 0 0-1.979 2zm7.979 0a2 2 0 1 0 2-2 2.007 2.007 0 0 0-1.997 2zm10-26a2 2 0 1 0-2-2 1.992 1.992 0 0 0 2.003 2zm-8 0a2 2 0 1 0-2-2 1.992 1.992 0 0 0 2.003 2zm-8 0a2 2 0 1 0-2-2 1.992 1.992 0 0 0 2.003 2zm6 54a2 2 0 1 0 2-2 2.007 2.007 0 0 0-1.997 2zm-8 0a2.011 2.011 0 1 0 2-2 2.007 2.007 0 0 0-1.997 2zm54.081-27.1a2.006 2.006 0 0 0-2 2v4.08h-2.22l-.24-.36a6.664 6.664 0 0 0-3.54-2.46v-2.9a2 2 0 0 0-4 0v2.9a6.5 6.5 0 0 0-3.56 2.46l-.24.36h-2.2v-4.08a2 2 0 0 0-4 0v6.08a2.006 2.006 0 0 0 2 2h2.46a17.6 17.6 0 0 0-.56 4.42 18.311 18.311 0 0 0 .12 2.12h-2.02a2.006 2.006 0 0 0-2 2v6.1a2 2 0 0 0 4 0v-4.1H407c1.38 3.52 3.96 5.84 6.98 5.84 3 0 5.58-2.32 6.96-5.84h1.04v4.1a2 2 0 0 0 4 0v-6.1a1.993 1.993 0 0 0-2-2h-2.04a18.311 18.311 0 0 0 .12-2.12 17.6 17.6 0 0 0-.56-4.42h2.48a1.993 1.993 0 0 0 2-2v-6.08a1.993 1.993 0 0 0-2.002-2zm-10 22.46c-1.94 0-4.1-3.4-4.1-7.96a11.3 11.3 0 0 1 1.78-6.44 2.857 2.857 0 0 1 2.32-1.1 2.818 2.818 0 0 1 2.3 1.1 11.144 11.144 0 0 1 1.78 6.44c0 4.557-2.158 7.957-4.08 7.957z" transform="translate(-360 -260)"/></svg>